PathFileType	4	(X/Y/Z)	C:/Users/opensim2020/Desktop/walking_exp_matlab/subject03_walking11_straight_04.trc	
DataRate	CameraRate	NumFrames	NumMarkers	Units	OrigDataRate	OrigDataStartFrame	OrigNumFrames	
100.00	100.00	4	46	mm	100.00	4054	350	
Frame#	Time	LFHD			RFHD			LBHD			RBHD			C7			T10			CLAV			STRN			RBAK			LSHO			LUPA			LELB			LFRM			LWRA			LWRB			LFIN			RSHO			RUPA			RELB			RFRM			RWRA			RWRB			RFIN			LASI			RASI			LPSI			RPSI			LTHI			LKNE			LTIB			LANK			LHEE			LTOE			RTHI			RKNE			RTIB			RANK			RHEE			RTOE			*39			*40			*41			*42			*43			*44			*45			
		X1	Y1	Z1	X2	Y2	Z2	X3	Y3	Z3	X4	Y4	Z4	X5	Y5	Z5	X6	Y6	Z6	X7	Y7	Z7	X8	Y8	Z8	X9	Y9	Z9	X10	Y10	Z10	X11	Y11	Z11	X12	Y12	Z12	X13	Y13	Z13	X14	Y14	Z14	X15	Y15	Z15	X16	Y16	Z16	X17	Y17	Z17	X18	Y18	Z18	X19	Y19	Z19	X20	Y20	Z20	X21	Y21	Z21	X22	Y22	Z22	X23	Y23	Z23	X24	Y24	Z24	X25	Y25	Z25	X26	Y26	Z26	X27	Y27	Z27	X28	Y28	Z28	X29	Y29	Z29	X30	Y30	Z30	X31	Y31	Z31	X32	Y32	Z32	X33	Y33	Z33	X34	Y34	Z34	X35	Y35	Z35	X36	Y36	Z36	X37	Y37	Z37	X38	Y38	Z38	X39	Y39	Z39	X40	Y40	Z40	X41	Y41	Z41	X42	Y42	Z42	X43	Y43	Z43	X44	Y44	Z44	X45	Y45	Z45	X46	Y46	Z46	

307	3.060	-900.38556	-903.71045	1625.07239	-1033.04102	-894.32727	1633.07104	-900.29449	-782.62091	1564.41663	-1030.38574	-778.60303	1572.69495	-957.66943	-761.18060	1419.38879	-959.98633	-721.94916	1106.92932	-965.03516	-886.36072	1343.98840	-961.38092	-923.04767	1176.95520	-1054.68237	-704.57642	1248.02209	-808.78729	-854.03094	1380.28552	-729.84601	-883.64258	1191.19849	-715.74341	-920.38184	1074.28882	-720.81812	-979.14435	958.38306	-753.57275	-1022.45758	848.44794	-699.16766	-1010.08313	850.53290	-710.12073	-1047.33484	775.52069	-1123.12134	-835.96735	1368.09827	-1196.58276	-836.91174	1145.44324	-1213.62463	-854.46594	1034.93542	-1219.56128	-880.28619	900.67798	-1189.74158	-922.83832	808.47217	-1229.27393	-886.07410	800.59204	-1223.48462	-916.23322	732.34473	-847.28546	-891.32959	944.04828	-1085.14136	-887.97894	943.37390	-897.11322	-727.90918	965.48889	-1045.47888	-727.53333	967.27008	-814.48877	-832.29694	641.49207	-856.87976	-836.50726	464.03760	-858.64545	-781.41565	275.31735	-903.75800	-765.32819	65.25456	-941.73907	-726.51141	29.71495	-925.34161	-919.08112	30.21793	-1141.07532	-894.18005	649.94940	-1116.82385	-959.13782	481.30750	-1120.33179	-888.88025	301.59970	-1077.74316	-825.07086	94.82705	-1021.59540	-779.15906	67.91716	-1073.02209	-953.12543	37.59061	-945.35187	-810.99347	1674.96741																		 
308	3.070	-900.28558	-909.30316	1624.37720	-1032.91663	-900.08636	1632.49731	-900.34039	-787.87524	1564.45642	-1030.38538	-784.19238	1572.78357	-956.68213	-766.19934	1418.93201	-959.51544	-727.02661	1106.43530	-964.85614	-891.26160	1343.57837	-960.99213	-928.09186	1176.58459	-1053.92102	-709.29871	1247.53040	-808.61609	-859.38843	1380.12476	-729.01532	-889.86884	1191.58545	-714.56647	-927.62439	1075.09668	-719.75610	-988.08002	960.12793	-752.77863	-1033.37622	851.11859	-698.47815	-1020.65265	852.65527	-709.64905	-1059.40222	778.46039	-1122.88208	-840.50500	1367.41272	-1196.33435	-840.72308	1144.77698	-1213.47302	-858.14551	1034.24646	-1219.51880	-883.70435	899.96228	-1189.85608	-926.19971	807.70282	-1229.23547	-889.31458	799.87646	-1223.71960	-919.50690	731.68268	-846.88324	-896.38861	943.70587	-1084.76184	-893.11377	943.06018	-896.86591	-732.92334	965.05029	-1045.21777	-732.57263	966.66296	-814.79401	-836.54742	641.31085	-856.72015	-839.25677	464.04309	-858.58044	-782.71844	275.34125	-903.80316	-765.48242	65.33590	-941.81384	-726.52087	29.79266	-925.35303	-919.05688	30.12700	-1141.02026	-900.15747	649.71631	-1115.92957	-965.74463	481.29239	-1119.20740	-901.81848	299.33289	-1076.44666	-846.99042	89.96540	-1019.95752	-802.39331	61.49771	-1072.37549	-977.13800	37.98016	-944.35504	-817.36975	1674.94519																		 
309	3.080	-900.16760	-915.03082	1623.68701	-1032.80090	-905.88031	1631.87500	-900.08118	-793.38965	1564.31946	-1030.13318	-789.47931	1572.67468	-956.44342	-771.03308	1418.74548	-959.30255	-732.02161	1105.99158	-964.68860	-896.23047	1343.14526	-960.65472	-932.93512	1176.14563	-1053.37988	-713.96967	1246.97852	-808.49817	-864.70996	1379.90344	-728.23956	-896.12701	1191.88489	-713.45612	-934.84528	1075.87952	-718.81415	-996.82758	961.73608	-752.21307	-1044.07434	853.76398	-697.98230	-1030.97607	854.66943	-709.36902	-1071.12415	781.30103	-1122.70032	-845.09296	1366.71423	-1196.11548	-844.64124	1144.04919	-1213.35718	-861.81714	1033.50659	-1219.45300	-887.17627	899.19885	-1189.98303	-929.63483	806.97217	-1229.16565	-892.70245	799.14001	-1223.92297	-922.81537	730.94196	-846.56067	-901.50592	943.36804	-1084.48645	-898.25842	942.61383	-896.65253	-738.00928	964.57581	-1045.00427	-737.68060	965.99799	-814.91992	-840.54266	641.05902	-856.76843	-841.43182	463.61752	-858.58038	-784.01221	275.38559	-903.87146	-765.67969	65.37201	-941.83948	-726.50452	29.85400	-925.30902	-919.13000	30.12973	-1141.33716	-905.20081	649.40302	-1115.04248	-972.01849	481.15524	-1118.24744	-914.72852	297.28638	-1075.05029	-869.04138	85.60633	-1018.59540	-825.62897	55.67210	-1072.08411	-1000.78992	38.53732	-944.74738	-823.08691	1674.95715																		 
310	3.090	-900.16986	-920.78168	1622.81506	-1032.72217	-911.68799	1631.20129	-900.15405	-798.69745	1564.31091	-1030.33655	-795.18115	1572.53772	-956.78088	-776.09650	1418.48108	-959.11047	-737.02228	1105.55566	-964.58490	-901.16718	1342.66504	-960.36627	-937.89667	1175.63904	-1052.74048	-718.84320	1246.38000	-808.42834	-870.00702	1379.64929	-727.64771	-902.37201	1192.09790	-712.44318	-941.79736	1076.43311	-718.06213	-1005.35486	963.24652	-751.83960	-1054.37622	856.29456	-697.72314	-1041.03101	856.55341	-709.40924	-1082.53394	784.08746	-1122.65137	-849.66486	1366.11169	-1195.91943	-848.60229	1143.33508	-1213.24390	-865.58582	1032.77075	-1219.37646	-890.68091	898.38983	-1190.06531	-933.18079	806.11694	-1229.18774	-895.83472	798.43353	-1224.10950	-926.09241	730.21454	-846.28564	-906.73016	943.04431	-1084.27039	-903.41742	942.07300	-896.43140	-743.19507	964.03235	-1044.78345	-742.88080	965.27075	-814.95050	-844.53320	640.77563	-856.78076	-843.76270	463.28171	-858.58887	-785.31506	275.39758	-903.92828	-765.75031	65.52901	-941.91071	-726.44568	30.01204	-925.49561	-919.12671	29.95525	-1140.88757	-910.65729	648.77112	-1114.05823	-978.11243	480.83572	-1117.32458	-927.26599	295.57266	-1074.49707	-890.48828	82.15637	-1017.52081	-848.90875	50.66914	-1072.00293	-1024.17322	39.21885	-944.81879	-829.08417	1674.54736																		 
